<?xml version="1.0" standalone="no"?>
<!DOCTYPE svg PUBLIC "-//W3C//DTD SVG 20010904//EN"
 "http://www.w3.org/TR/2001/REC-SVG-20010904/DTD/svg10.dtd">
<svg version="1.0" xmlns="http://www.w3.org/2000/svg"
 width="860.000000pt" height="905.000000pt" viewBox="0 0 860.000000 905.000000"
 preserveAspectRatio="xMidYMid meet">

<g transform="translate(0.000000,905.000000) scale(0.100000,-0.100000)"
fill="#000000" stroke="none">
<path d="M4039 8617 c-31 -21 -1038 -841 -1119 -911 l-35 -30 -5 190 c-6 213
-12 235 -77 276 l-38 23 -455 0 c-441 0 -456 -1 -490 -21 -19 -11 -45 -35 -57
-54 l-23 -33 0 -656 0 -657 -177 -145 c-98 -80 -411 -335 -695 -567 -284 -232
-526 -434 -537 -448 -87 -111 31 -277 167 -236 24 8 165 116 392 301 l355 290
5 -1799 c5 -1797 5 -1799 26 -1826 33 -45 70 -67 121 -71 60 -5 117 26 144 77
18 33 19 104 19 1956 l0 1921 427 349 c236 192 525 428 643 524 118 97 388
317 600 490 212 173 500 408 640 522 140 115 258 207 262 206 4 -2 220 -162
480 -355 581 -434 1254 -934 1882 -1402 l476 -354 0 -1916 c0 -1884 0 -1917
20 -1948 28 -46 92 -76 148 -70 52 6 89 31 117 78 20 34 20 57 25 1827 l5
1793 383 -285 c210 -157 396 -292 412 -301 59 -30 136 -12 183 44 52 62 45
150 -15 207 -18 17 -247 190 -508 384 -261 194 -491 367 -510 385 -19 18 -46
38 -60 45 -29 15 61 -52 -1644 1219 -725 540 -1330 987 -1343 992 -44 17 -108
11 -144 -14z m-1469 -981 l0 -215 -242 -197 c-134 -109 -251 -204 -260 -212
-17 -14 -18 6 -18 411 l0 427 260 0 260 0 0 -214z"/>
<path d="M2864 6922 c-12 -9 -27 -27 -33 -39 -8 -16 -11 -313 -11 -1051 0
-991 1 -1032 20 -1106 40 -159 140 -301 294 -417 97 -74 277 -169 319 -169
l27 0 0 -384 0 -385 -173 -3 c-170 -3 -174 -4 -215 -31 -23 -15 -51 -45 -62
-68 -20 -38 -21 -53 -17 -237 3 -108 5 -203 5 -209 -1 -25 -2 -408 -1 -428 0
-11 0 -111 0 -222 1 -112 1 -211 1 -220 0 -10 -2 -104 -4 -210 -5 -179 -3
-195 16 -233 11 -22 39 -52 62 -67 41 -27 45 -28 213 -31 l172 -3 6 -162 c4
-125 11 -178 27 -232 60 -192 210 -334 408 -385 55 -14 194 -14 257 0 201 45
377 224 420 429 10 46 15 127 15 223 l0 150 23 -8 c37 -13 497 -17 540 -4 20
6 53 24 71 41 l34 30 34 -31 c48 -44 82 -50 282 -50 213 0 248 10 297 88 l29
46 0 840 c0 835 0 840 -21 884 -13 26 -38 54 -62 70 -40 27 -43 27 -236 30
-189 3 -198 2 -242 -20 l-46 -24 -5 192 c-4 166 -8 196 -24 225 -16 28 -231
217 -467 412 l-40 33 75 42 c166 91 296 221 369 367 71 144 69 102 69 1243 0
734 -3 1029 -11 1045 -6 12 -21 30 -33 39 -20 16 -97 18 -1191 18 -1094 0
-1171 -2 -1191 -18z m2216 -877 l0 -695 -1025 0 -1025 0 0 695 0 695 1025 0
1025 0 0 -695z m0 -1063 c0 -237 -22 -303 -144 -431 -69 -72 -139 -122 -243
-175 -68 -34 -78 -36 -168 -36 -75 0 -104 -4 -133 -19 -34 -18 -530 -429 -630
-524 -24 -22 -49 -52 -55 -66 -10 -21 -13 34 -17 267 l-5 294 -28 24 c-24 20
-39 24 -98 24 -60 0 -79 5 -142 36 -140 70 -271 183 -329 284 -48 82 -58 139
-58 322 l0 168 1025 0 1025 0 0 -168z m-507 -895 c407 -343 513 -433 519 -441
4 -6 8 -464 8 -1018 l0 -1008 -185 0 -185 0 0 999 c0 607 -4 1010 -9 1025 -13
33 -167 163 -202 170 -16 3 -40 1 -54 -4 -14 -5 -112 -82 -216 -171 -158 -134
-193 -159 -203 -148 -78 88 -138 160 -135 163 2 2 130 110 284 240 191 161
287 236 303 236 13 0 47 -19 75 -43z m-856 -519 c11 -18 50 -68 86 -111 37
-43 67 -80 67 -83 0 -2 -40 -4 -90 -4 l-90 0 0 115 c0 63 2 115 4 115 2 0 13
-15 23 -32z m681 -1518 l-3 -965 -22 -48 c-34 -72 -113 -150 -186 -182 -50
-23 -76 -28 -137 -28 -143 0 -259 72 -322 200 -32 65 -32 70 -36 225 l-4 158
158 0 c178 0 217 11 267 69 44 52 49 89 43 281 -3 96 -5 191 -4 210 1 19 1
114 1 210 -1 96 -1 195 -1 220 1 25 1 120 1 213 -1 249 -1 254 1 435 0 92 -3
181 -7 198 -8 29 -4 33 120 137 l128 108 3 -238 c1 -131 1 -672 0 -1203z
m-448 995 l0 -115 -367 2 -368 3 -3 113 -3 112 371 0 370 0 0 -115z m1760
-655 l0 -770 -125 0 -125 0 0 770 0 770 125 0 125 0 0 -770z m-1760 215 l0
-115 -367 2 -368 3 -3 113 -3 112 371 0 370 0 0 -115z m-5 -435 l0 -115 -365
0 -365 0 -3 104 c-1 58 0 111 2 118 5 11 74 13 368 11 l363 -3 0 -115z m5
-435 l0 -115 -370 0 -370 0 0 108 c0 60 3 112 7 115 3 4 170 7 370 7 l363 0 0
-115z"/>
</g>
</svg>
