<?xml version="1.0" standalone="no"?>
<!DOCTYPE svg PUBLIC "-//W3C//DTD SVG 20010904//EN"
 "http://www.w3.org/TR/2001/REC-SVG-20010904/DTD/svg10.dtd">
<svg version="1.0" xmlns="http://www.w3.org/2000/svg"
 width="512.000000pt" height="512.000000pt" viewBox="0 0 512.000000 512.000000"
 preserveAspectRatio="xMidYMid meet">
<metadata>
Created by potrace 1.16, written by Peter Selinger 2001-2019
</metadata>
<g transform="translate(0.000000,512.000000) scale(0.100000,-0.100000)"
fill="#000000" stroke="none">
<path d="M4055 5110 c-11 -5 -442 -431 -959 -948 l-938 -939 -62 18 c-33 10
-117 28 -186 40 -108 18 -151 20 -310 16 -201 -6 -304 -23 -472 -78 -587 -191
-1019 -704 -1114 -1324 -7 -49 -14 -160 -14 -245 0 -163 14 -281 49 -417 115
-446 422 -834 831 -1047 170 -89 335 -143 525 -172 116 -18 374 -18 490 0 620
95 1133 527 1324 1114 55 168 72 271 78 472 4 159 2 202 -16 310 -12 69 -30
153 -40 186 l-19 62 62 61 61 61 255 51 c269 54 309 68 336 120 8 17 35 129
59 251 25 122 47 223 48 225 2 2 104 23 226 48 122 24 236 52 253 62 48 28 65
74 109 295 l42 206 171 4 c155 3 174 5 206 25 74 46 70 1 70 770 0 657 -1 689
-19 717 -10 15 -32 37 -47 47 -27 18 -55 19 -504 18 -261 0 -484 -4 -495 -9z
m-402 -1232 c-843 -845 -943 -947 -953 -985 -31 -120 73 -224 193 -193 38 10
140 110 985 953 l942 942 0 -373 0 -372 -162 0 c-186 0 -212 -8 -246 -77 -10
-21 -38 -136 -62 -256 -38 -195 -45 -218 -64 -222 -12 -3 -110 -23 -219 -45
-109 -22 -213 -47 -232 -56 -55 -26 -70 -63 -115 -289 -23 -115 -43 -217 -46
-226 -3 -12 -50 -25 -192 -53 -298 -59 -277 -50 -415 -184 -181 -177 -198
-213 -157 -330 73 -203 98 -460 66 -670 -40 -262 -169 -521 -354 -714 -268
-279 -593 -418 -977 -418 -149 0 -268 18 -405 62 -455 145 -799 524 -905 998
-25 113 -31 363 -11 488 77 487 417 894 886 1060 157 55 235 67 445 67 203 -1
280 -13 447 -71 89 -32 124 -30 179 5 24 16 465 450 979 965 l935 936 200 0
200 0 -942 -942z"/>
<path d="M1131 1669 c-127 -25 -258 -127 -313 -245 -131 -279 35 -596 337
-646 297 -49 564 215 518 513 -41 259 -283 429 -542 378z m177 -327 c89 -64
76 -200 -24 -247 -130 -61 -259 96 -175 213 44 63 136 78 199 34z"/>
</g>
</svg>
