<?xml version="1.0" standalone="no"?>
<!DOCTYPE svg PUBLIC "-//W3C//DTD SVG 20010904//EN"
 "http://www.w3.org/TR/2001/REC-SVG-20010904/DTD/svg10.dtd">
<svg version="1.0" xmlns="http://www.w3.org/2000/svg"
 width="980.000000pt" height="972.000000pt" viewBox="0 0 980.000000 972.000000"
 preserveAspectRatio="xMidYMid meet">

<g transform="translate(0.000000,972.000000) scale(0.100000,-0.100000)"
fill="#000000" stroke="none">
<path d="M6308 9706 c-44 -16 -156 -85 -265 -163 -718 -514 -1097 -1432 -947
-2297 20 -116 66 -294 98 -380 14 -38 26 -76 26 -85 0 -9 -21 -37 -46 -61 -69
-67 -87 -109 -82 -190 3 -52 10 -76 31 -108 51 -77 156 -116 247 -92 37 10 67
33 174 138 75 75 136 144 147 167 26 56 24 128 -7 200 -115 272 -161 468 -171
725 -17 451 119 875 397 1239 65 87 227 261 241 261 5 0 10 -342 11 -759 l3
-759 30 -44 c24 -34 146 -123 560 -411 292 -202 553 -379 580 -392 61 -30 135
-33 186 -7 82 42 1077 737 1121 783 35 37 49 61 57 99 7 34 11 292 11 773 l1
722 107 -111 c377 -389 567 -912 531 -1461 -31 -467 -222 -886 -559 -1223
-340 -340 -754 -528 -1232 -560 -193 -13 -356 9 -676 89 -232 59 -193 81 -630
-353 -200 -199 -376 -381 -390 -406 -59 -99 -23 -229 81 -294 40 -25 59 -30
110 -30 39 0 75 7 97 18 19 10 173 155 341 323 l307 305 113 -26 c295 -68 497
-86 722 -67 825 73 1552 568 1917 1306 114 230 187 462 226 725 24 157 25 491
1 651 -80 537 -331 1025 -718 1393 -164 156 -402 325 -511 363 -97 34 -209
-14 -261 -112 -22 -40 -22 -40 -25 -952 l-2 -912 -373 -257 c-204 -141 -391
-270 -414 -287 l-41 -29 -416 288 -416 288 0 896 c0 617 -4 907 -11 935 -15
56 -92 128 -152 143 -58 15 -83 15 -129 -2z"/>
<path d="M1012 9610 c-376 -53 -691 -279 -860 -615 -86 -172 -117 -328 -109
-543 8 -221 66 -398 188 -579 41 -61 440 -466 1830 -1858 1529 -1532 1776
-1783 1769 -1800 -42 -100 43 -247 158 -275 57 -13 108 -8 157 17 16 8 119
104 228 211 l197 197 1149 -1149 1150 -1150 112 -310 c62 -171 120 -327 130
-346 10 -19 323 -339 696 -711 718 -716 699 -699 789 -699 88 0 85 -2 562 473
250 249 462 468 472 487 29 57 34 102 16 162 -15 51 -41 79 -695 732 -374 374
-687 683 -695 688 -9 5 -163 62 -343 128 l-326 118 -1148 1148 -1149 1149 194
195 c114 114 202 212 215 237 70 139 -35 313 -189 315 -26 0 -58 -3 -70 -7
-20 -6 -246 216 -1804 1772 -1367 1365 -1797 1790 -1851 1825 -195 127 -374
185 -599 193 -61 2 -139 0 -174 -5z m288 -451 c30 -6 98 -31 150 -56 l95 -45
1773 -1771 1772 -1772 -475 -475 -475 -475 -1751 1750 c-1272 1272 -1763 1769
-1796 1819 -178 264 -141 616 88 845 165 166 375 226 619 180z m6057 -6758
c11 -6 164 -62 340 -126 l318 -115 550 -550 550 -550 -260 -260 -260 -260
-550 550 -551 551 -104 287 c-57 158 -114 312 -127 342 -21 49 -148 180 -1201
1232 l-1177 1178 45 45 45 45 1180 -1179 c649 -648 1190 -1184 1202 -1190z"/>
<path d="M1105 8721 c-139 -34 -214 -182 -156 -306 13 -28 497 -517 1587
-1606 1563 -1561 1569 -1567 1622 -1579 138 -32 272 73 272 215 0 28 -9 68
-19 90 -13 28 -497 518 -1587 1607 l-1569 1566 -53 11 c-58 12 -54 12 -97 2z"/>
<path d="M3025 4551 c-51 -24 -2766 -2739 -2832 -2832 -64 -91 -130 -232 -160
-346 -23 -85 -26 -118 -27 -253 0 -108 5 -176 16 -225 95 -417 414 -730 830
-816 203 -42 453 -13 642 75 174 80 130 38 1814 1720 1089 1088 1599 1604
1612 1632 27 54 26 135 -1 191 -51 106 -180 152 -289 102 -35 -16 -390 -365
-1635 -1608 -1557 -1555 -1592 -1589 -1665 -1624 -232 -111 -500 -74 -685 95
-217 199 -263 509 -113 767 24 41 390 415 1404 1431 1120 1122 1374 1382 1384
1414 20 62 9 149 -26 199 -58 84 -180 119 -269 78z"/>
<path d="M957 1365 c-125 -48 -202 -196 -168 -322 17 -62 70 -134 124 -167 67
-41 170 -48 245 -16 58 25 125 92 149 148 21 48 21 156 1 203 -22 51 -84 116
-132 141 -53 27 -165 34 -219 13z"/>
</g>
</svg>
