<?xml version="1.0" standalone="no"?>
<!DOCTYPE svg PUBLIC "-//W3C//DTD SVG 20010904//EN"
 "http://www.w3.org/TR/2001/REC-SVG-20010904/DTD/svg10.dtd">
<svg version="1.0" xmlns="http://www.w3.org/2000/svg"
 width="1600.000000pt" height="1600.000000pt" viewBox="0 0 1600.000000 1600.000000"
 preserveAspectRatio="xMidYMid meet">

<g transform="translate(0.000000,1600.000000) scale(0.100000,-0.100000)"
fill="#000000" stroke="none">
<path d="M7370 15029 c-946 -42 -1921 -206 -2655 -446 -1721 -563 -2773 -1628
-3110 -3147 -36 -165 -137 -768 -179 -1076 -57 -414 -95 -794 -128 -1260 -17
-240 -17 -1105 0 -1335 55 -763 168 -1411 354 -2024 267 -884 723 -1584 1341
-2058 312 -239 512 -340 1037 -523 265 -92 409 -156 433 -191 16 -22 17 -132
17 -1336 l0 -1313 288 0 287 0 335 326 c531 518 1455 1441 1648 1649 277 298
238 265 323 265 225 0 1274 38 1819 65 503 26 717 40 1030 71 1419 139 2440
541 3130 1233 296 297 486 573 677 984 225 482 392 992 504 1533 130 634 193
1390 193 2319 1 637 -21 1017 -90 1555 -71 562 -217 1247 -354 1660 -246 743
-678 1357 -1265 1801 -686 518 -1525 843 -2695 1043 -1010 172 -2048 245
-2940 205z m1230 -649 c824 -52 1684 -177 2315 -337 1098 -277 1904 -777 2363
-1466 228 -342 356 -648 487 -1162 302 -1183 385 -2479 255 -3960 -78 -878
-272 -1621 -612 -2335 -280 -588 -707 -1007 -1328 -1303 -554 -265 -1190 -418
-2065 -496 -414 -37 -1202 -78 -1950 -101 -800 -25 -845 -27 -930 -49 -166
-43 -281 -120 -422 -283 -161 -186 -493 -525 -1035 -1054 l-553 -542 -5 877
c-6 862 -6 877 -27 946 -61 197 -147 313 -310 419 -114 74 -300 151 -793 332
-209 76 -361 149 -478 230 -680 470 -1094 1148 -1352 2218 -321 1329 -319
2756 6 4636 68 394 117 596 202 830 294 813 855 1416 1732 1860 658 332 1372
535 2340 664 332 45 562 64 1040 90 127 7 958 -3 1120 -14z"/>
<path d="M8090 12789 c-216 -18 -476 -64 -559 -99 -60 -26 -123 -90 -153 -155
-33 -73 -32 -189 3 -265 71 -152 205 -215 380 -177 616 134 1260 61 1817 -203
710 -338 1243 -948 1482 -1695 82 -257 119 -485 127 -775 6 -240 -5 -386 -48
-626 -28 -153 -30 -178 -19 -228 59 -285 485 -334 602 -70 22 50 61 240 83
404 22 155 30 551 16 715 -72 831 -417 1578 -999 2163 -720 724 -1717 1093
-2732 1011z"/>
<path d="M4995 12141 c-694 -166 -1149 -671 -1148 -1276 1 -202 13 -249 179
-668 248 -628 350 -854 519 -1157 279 -500 574 -942 913 -1370 1032 -1302
2385 -2319 4042 -3040 315 -137 478 -169 697 -139 255 35 638 245 873 480 141
141 243 285 340 479 170 339 141 581 -99 834 -60 64 -945 727 -1145 858 -114
75 -238 138 -340 172 -221 74 -449 57 -624 -46 -77 -45 -238 -207 -296 -298
-159 -247 -392 -366 -622 -317 -92 20 -170 51 -369 146 -635 305 -1125 716
-1487 1246 -206 302 -383 673 -419 881 -16 94 -7 235 21 309 53 139 170 277
365 430 264 206 355 342 355 529 0 101 -21 171 -96 326 -213 438 -514 872
-858 1239 -284 304 -416 387 -631 397 -66 3 -112 -1 -170 -15z"/>
<path d="M8135 11829 c-251 -23 -350 -60 -412 -152 -44 -65 -56 -117 -51 -208
6 -96 40 -172 104 -228 84 -74 156 -83 404 -51 228 29 537 -5 778 -85 789
-264 1314 -1023 1279 -1850 -4 -77 -12 -171 -18 -210 -17 -105 -8 -203 24
-258 56 -95 146 -148 267 -155 186 -11 299 82 334 276 41 226 45 539 11 772
-158 1074 -987 1932 -2050 2120 -222 39 -452 49 -670 29z"/>
<path d="M8203 10862 c-67 -24 -118 -64 -154 -121 -41 -63 -52 -113 -47 -206
7 -124 61 -211 164 -261 46 -22 75 -28 182 -35 300 -20 516 -123 703 -336 137
-156 212 -352 228 -595 9 -145 34 -212 97 -267 72 -64 109 -76 224 -76 90 0
111 3 147 23 149 79 192 199 164 453 -31 272 -122 520 -274 744 -81 120 -293
331 -414 413 -252 171 -535 265 -833 277 -116 5 -142 3 -187 -13z"/>
</g>
</svg>
